<?xml version="1.0" encoding="UTF-8"?>
<svg id="Layer_2" data-name="Layer 2" xmlns="http://www.w3.org/2000/svg" viewBox="0 0 894.14 947.43">
  <defs>
    <style>
      .cls-1 {
        fill: #4d5932;
      }
    </style>
  </defs>
  <g id="Layer_1-2" data-name="Layer 1">
    <g>
      <path class="cls-1" d="M63.26,947.43c-27.32,0-63.26-7.76-63.26-41.7,0-40.55,72.75-74.77,72.75-100.36s-54.93-25.02-54.93-40.55c0-29.33,72.18-29.33,87.13-29.33,19.56,0,75.34,4.31,75.34,30.48,0,35.95-68.73,61.25-68.73,95.18,0,19.55,76.49,12.65,76.49,42.27,0,40.26-74.48,44-124.8,44Z"/>
      <path class="cls-1" d="M304.62,736.72c-40.55,0-93.91-11.53-93.91-61.89,0-60.19,107.99-110.98,107.99-148.97s-81.53-37.14-81.53-60.19c0-43.54,107.14-43.54,129.34-43.54,29.03,0,111.83,6.4,111.83,45.25,0,53.36-102.02,90.92-102.02,141.29,0,29.03,113.54,18.78,113.54,62.75,0,59.76-110.55,65.31-185.25,65.31Z"/>
      <path class="cls-1" d="M615.48,473.21c-60.99,0-141.25-17.34-141.25-93.1,0-90.53,162.45-166.94,162.45-224.08s-122.64-55.86-122.64-90.53C514.03,0,675.19,0,708.58,0c43.66,0,168.22,9.63,168.22,68.06,0,80.26-153.45,136.76-153.45,212.53,0,43.66,170.79,28.25,170.79,94.39,0,89.89-166.3,98.24-278.66,98.24Z"/>
    </g>
  </g>
</svg>