<?xml version="1.0" encoding="UTF-8"?>
<svg id="Layer_2" data-name="Layer 2" xmlns="http://www.w3.org/2000/svg" viewBox="0 0 813.54 106.07">
  <g id="Layer_1-2" data-name="Layer 1">
    <path d="M813.54,15.71c0-10.15-9.98-12.37-13.3-12.37-4.44,0-10.12,1.95-13.44,5.28-26.19,26.41-29.24,28.92-32.15,28.92-2.49,0-3.74-5.56-3.74-8.06,0-4.87,1.11-11.26,1.11-14.6,0-8.34-3.19-10.7-10.81-10.7-4.71,0-9.84.28-13.58,2.92-7.9,5.28-28.97,74.37-28.97,85.49,0,8.2,8.18,9.73,14.83,9.73,3.33,0,5.13,0,7.34-2.22,22.31-21.55,22.17-23.08,27.17-23.08,10.67,0,10.67,26,30.77,26,5.54,0,14.69-.69,14.69-8.2,0-11.12-8.87-21.13-8.87-33.08,0-19.32,28.97-34.2,28.97-46.01M694.63,85.49c0-11.82-20.79-7.23-20.79-22.66s8.87-29.47,8.87-44.34c0-8.06-6.79-14.04-15.94-14.04-15.11,0-33.68,68.39-33.68,78.4,0,18.63,23.01,20.43,36.73,20.43,11.5,0,24.81-4.03,24.81-17.79M597.06,46.01c0,8.06-6.65,14.46-14.83,14.46-6.24,0-10.26-4.45-10.26-10.84,0-8.2,6.93-15.15,15.11-15.15,5.96,0,9.98,5.84,9.98,11.54M628.94,63.81c0-15.29-.28-58.38-21.76-58.38-33.12,0-83.43,61.44-83.43,88.13,0,5.14,4.43,12.23,9.98,12.23,12.2,0,28.83-23.77,47.4-23.77,15.94,0,16.77,22.24,27.44,22.24,18.16,0,20.37-27.52,20.37-40.45M538.02,17.66c0-7.09-6.79-11.96-13.44-11.96-14.83,0-14,40.87-25.92,40.87s-5.54-39.34-23.7-39.34-26.06,39.34-39.78,39.34c-1.8,0-2.63-2.92-2.91-4.45,0-11.82,1.94-20.71,1.94-30.44-.42-4.31-3.47-5.98-7.21-5.98s-8.59,1.53-11.36,3.75c-14.14,11.4-25.92,59.5-25.92,76.6,0,11.54,6.65,20.02,18.57,20.02,23.28,0,41.72-48.38,56.82-48.38,7.76,0-2.08,46.85,24.25,46.85,28.55,0,48.65-64.22,48.65-86.88M376,33.08c0,8.06-7.07,15.57-15.52,15.57-5.54,0-9.7-4.45-9.7-9.73,0-8.48,5.54-17.1,14.55-17.1,6.65,0,10.67,4.59,10.67,11.26M395.27,28.22c0-13.76-9.98-24.19-24.39-24.19-42.69,0-47.26,2.22-60.84,42.4-4.43,13.34-11.09,28.22-11.09,42.68,0,9.31,6.65,15.29,15.11,15.29,13.86,0,17.05-13.9,23.42-20.85,19.4-21.27,57.79-14.04,57.79-55.33M302.41,15.85c0-10.29-23.28-11.26-32.43-11.26-10.12,0-22.18,1.25-29.11,6.81-13.44,10.84-25.5,57.27-25.5,73.54s25.78,16.4,36.45,16.4c17.33-.14,41.99-.42,42.13-20.3.14-9.87-33.4-1.25-33.4-12.37,0-1.95,0-2.64,2.22-3.75,5.54-2.92,29.66-9.73,29.66-18.9,0-5.01-4.3-6.26-9.43-6.12-11.5.14-11.92.56-12.33.56-3.74,0-6.38-1.25-6.38-4.59,0-11.12,38.11-11.12,38.11-20.02M218.84,15.85c0-10.29-23.28-11.26-32.43-11.26-10.12,0-22.18,1.25-29.1,6.81-13.44,10.84-25.5,57.27-25.5,73.54s25.78,16.4,36.45,16.4c17.32-.14,41.99-.42,42.13-20.3.14-9.87-33.4-1.25-33.4-12.37,0-1.95,0-2.64,2.22-3.75,5.54-2.92,29.66-9.73,29.66-18.9,0-5.01-4.3-6.26-9.42-6.12-11.5.14-11.92.56-12.34.56-3.74,0-6.38-1.25-6.38-4.59,0-11.12,38.11-11.12,38.11-20.02M127.78,85.49c0-11.82-20.79-7.23-20.79-22.66s8.87-29.47,8.87-44.34c0-8.06-6.79-14.04-15.94-14.04-15.11,0-33.68,68.39-33.68,78.4,0,18.63,23.01,20.43,36.73,20.43,11.5,0,24.81-4.03,24.81-17.79M78.58,10.15c0-7.09-4.85-10.15-11.09-10.15-18.99,0-33.82,9.04-35.62,29.05-.69,6.67.69,19.74-2.22,27.53-5.96,15.57-29.66,5.56-29.66,23.35,0,12.65,7.35,24.19,20.79,24.19,51,0,34.37-40.17,43.66-72.15,3.33-11.12,14.14-8.48,14.14-21.82"/>
  </g>
</svg>